<?xml version="1.0" encoding="UTF-8" standalone="no"?>
<!DOCTYPE svg PUBLIC "-//W3C//DTD SVG 1.1//EN"
 "http://www.w3.org/Graphics/SVG/1.1/DTD/svg11.dtd">
<!-- Generated by graphviz version 2.42.4 (0)
 -->
<!-- Title: RAMP_CORE_ER Pages: 1 -->
<svg width="2115pt" height="1183pt"
 viewBox="0.00 0.00 2115.00 1182.50" xmlns="http://www.w3.org/2000/svg" xmlns:xlink="http://www.w3.org/1999/xlink">
<g id="graph0" class="graph" transform="scale(1 1) rotate(0) translate(4 1178.5)">
<title>RAMP_CORE_ER</title>
<polygon fill="white" stroke="transparent" points="-4,4 -4,-1178.5 2111,-1178.5 2111,4 -4,4"/>
<!-- User -->
<g id="node1" class="node">
<title>User</title>
<path fill="#e0f2fe" stroke="#334155" d="M328,-741C328,-741 427,-741 427,-741 433,-741 439,-747 439,-753 439,-753 439,-770 439,-770 439,-776 433,-782 427,-782 427,-782 328,-782 328,-782 322,-782 316,-776 316,-770 316,-770 316,-753 316,-753 316,-747 322,-741 328,-741"/>
<text text-anchor="middle" x="335" y="-759" font-family="Noto Sans CJK JP" font-size="10.00">User</text>
<polyline fill="none" stroke="#334155" points="354,-741 354,-782 "/>
<text text-anchor="middle" x="396.5" y="-770" font-family="Noto Sans CJK JP" font-size="10.00">users</text>
<text text-anchor="middle" x="396.5" y="-759" font-family="Noto Sans CJK JP" font-size="10.00">利用者の業務核</text>
<text text-anchor="middle" x="396.5" y="-748" font-family="Noto Sans CJK JP" font-size="10.00">PIIなし</text>
</g>
<!-- UserPII -->
<g id="node2" class="node">
<title>UserPII</title>
<path fill="#fee2e2" stroke="#334155" d="M665,-826.5C665,-826.5 776,-826.5 776,-826.5 782,-826.5 788,-832.5 788,-838.5 788,-838.5 788,-850.5 788,-850.5 788,-856.5 782,-862.5 776,-862.5 776,-862.5 665,-862.5 665,-862.5 659,-862.5 653,-856.5 653,-850.5 653,-850.5 653,-838.5 653,-838.5 653,-832.5 659,-826.5 665,-826.5"/>
<text text-anchor="middle" x="678" y="-842" font-family="Noto Sans CJK JP" font-size="10.00">UserPII</text>
<polyline fill="none" stroke="#334155" points="703,-826.5 703,-862.5 "/>
<text text-anchor="middle" x="745.5" y="-847.5" font-family="Noto Sans CJK JP" font-size="10.00">user_pii</text>
<text text-anchor="middle" x="745.5" y="-836.5" font-family="Noto Sans CJK JP" font-size="10.00">個人情報保管庫</text>
</g>
<!-- User&#45;&gt;UserPII -->
<g id="edge1" class="edge">
<title>User&#45;&gt;UserPII</title>
<path fill="none" stroke="#475569" d="M409,-782.02C409,-806.6 409,-844.5 409,-844.5 409,-844.5 645.91,-844.5 645.91,-844.5"/>
<polygon fill="#475569" stroke="#475569" points="645.91,-846.95 652.91,-844.5 645.91,-842.05 645.91,-846.95"/>
<text text-anchor="middle" x="557.5" y="-847.3" font-family="Noto Sans CJK JP" font-size="9.00">1:1</text>
</g>
<!-- UserProfile -->
<g id="node3" class="node">
<title>UserProfile</title>
<path fill="#f8fafc" stroke="#334155" d="M651,-749.5C651,-749.5 790,-749.5 790,-749.5 796,-749.5 802,-755.5 802,-761.5 802,-761.5 802,-773.5 802,-773.5 802,-779.5 796,-785.5 790,-785.5 790,-785.5 651,-785.5 651,-785.5 645,-785.5 639,-779.5 639,-773.5 639,-773.5 639,-761.5 639,-761.5 639,-755.5 645,-749.5 651,-749.5"/>
<text text-anchor="middle" x="673" y="-765" font-family="Noto Sans CJK JP" font-size="10.00">UserProfile</text>
<polyline fill="none" stroke="#334155" points="707,-749.5 707,-785.5 "/>
<text text-anchor="middle" x="754.5" y="-770.5" font-family="Noto Sans CJK JP" font-size="10.00">user_profiles</text>
<text text-anchor="middle" x="754.5" y="-759.5" font-family="Noto Sans CJK JP" font-size="10.00">支援プロフィール</text>
</g>
<!-- User&#45;&gt;UserProfile -->
<g id="edge2" class="edge">
<title>User&#45;&gt;UserProfile</title>
<path fill="none" stroke="#475569" d="M439.22,-760.17C439.22,-760.17 631.94,-760.17 631.94,-760.17"/>
<polygon fill="#475569" stroke="#475569" points="631.94,-762.62 638.94,-760.17 631.94,-757.72 631.94,-762.62"/>
<text text-anchor="middle" x="557.5" y="-792.3" font-family="Noto Sans CJK JP" font-size="9.00">1:0..1</text>
</g>
<!-- ServiceCertificate -->
<g id="node4" class="node">
<title>ServiceCertificate</title>
<path fill="#f8fafc" stroke="#334155" d="M631.5,-672.5C631.5,-672.5 809.5,-672.5 809.5,-672.5 815.5,-672.5 821.5,-678.5 821.5,-684.5 821.5,-684.5 821.5,-696.5 821.5,-696.5 821.5,-702.5 815.5,-708.5 809.5,-708.5 809.5,-708.5 631.5,-708.5 631.5,-708.5 625.5,-708.5 619.5,-702.5 619.5,-696.5 619.5,-696.5 619.5,-684.5 619.5,-684.5 619.5,-678.5 625.5,-672.5 631.5,-672.5"/>
<text text-anchor="middle" x="668.5" y="-688" font-family="Noto Sans CJK JP" font-size="10.00">ServiceCertificate</text>
<polyline fill="none" stroke="#334155" points="717.5,-672.5 717.5,-708.5 "/>
<text text-anchor="middle" x="769.5" y="-693.5" font-family="Noto Sans CJK JP" font-size="10.00">service_certificates</text>
<text text-anchor="middle" x="769.5" y="-682.5" font-family="Noto Sans CJK JP" font-size="10.00">受給者証・支給決定</text>
</g>
<!-- User&#45;&gt;ServiceCertificate -->
<g id="edge3" class="edge">
<title>User&#45;&gt;ServiceCertificate</title>
<path fill="none" stroke="#475569" d="M439.02,-746.17C514.63,-746.17 633,-746.17 633,-746.17 633,-746.17 633,-715.73 633,-715.73"/>
<polygon fill="#475569" stroke="#475569" points="635.45,-715.73 633,-708.73 630.55,-715.73 635.45,-715.73"/>
<text text-anchor="middle" x="557.5" y="-737.3" font-family="Noto Sans CJK JP" font-size="9.00">1:N</text>
</g>
<!-- SupportPlan -->
<g id="node5" class="node">
<title>SupportPlan</title>
<path fill="#dcfce7" stroke="#334155" d="M653.5,-595.5C653.5,-595.5 787.5,-595.5 787.5,-595.5 793.5,-595.5 799.5,-601.5 799.5,-607.5 799.5,-607.5 799.5,-619.5 799.5,-619.5 799.5,-625.5 793.5,-631.5 787.5,-631.5 787.5,-631.5 653.5,-631.5 653.5,-631.5 647.5,-631.5 641.5,-625.5 641.5,-619.5 641.5,-619.5 641.5,-607.5 641.5,-607.5 641.5,-601.5 647.5,-595.5 653.5,-595.5"/>
<text text-anchor="middle" x="679" y="-611" font-family="Noto Sans CJK JP" font-size="10.00">SupportPlan</text>
<polyline fill="none" stroke="#334155" points="716.5,-595.5 716.5,-631.5 "/>
<text text-anchor="middle" x="758" y="-616.5" font-family="Noto Sans CJK JP" font-size="10.00">support_plans</text>
<text text-anchor="middle" x="758" y="-605.5" font-family="Noto Sans CJK JP" font-size="10.00">個別支援計画</text>
</g>
<!-- User&#45;&gt;SupportPlan -->
<g id="edge4" class="edge">
<title>User&#45;&gt;SupportPlan</title>
<path fill="none" stroke="#475569" d="M409,-740.92C409,-700.25 409,-613.5 409,-613.5 409,-613.5 634.49,-613.5 634.49,-613.5"/>
<polygon fill="#475569" stroke="#475569" points="634.49,-615.95 641.49,-613.5 634.49,-611.05 634.49,-615.95"/>
<text text-anchor="middle" x="557.5" y="-682.3" font-family="Noto Sans CJK JP" font-size="9.00">1:N</text>
</g>
<!-- DailyLog -->
<g id="node9" class="node">
<title>DailyLog</title>
<path fill="#fef9c3" stroke="#334155" d="M671,-1097.5C671,-1097.5 770,-1097.5 770,-1097.5 776,-1097.5 782,-1103.5 782,-1109.5 782,-1109.5 782,-1121.5 782,-1121.5 782,-1127.5 776,-1133.5 770,-1133.5 770,-1133.5 671,-1133.5 671,-1133.5 665,-1133.5 659,-1127.5 659,-1121.5 659,-1121.5 659,-1109.5 659,-1109.5 659,-1103.5 665,-1097.5 671,-1097.5"/>
<text text-anchor="middle" x="688" y="-1113" font-family="Noto Sans CJK JP" font-size="10.00">DailyLog</text>
<polyline fill="none" stroke="#334155" points="717,-1097.5 717,-1133.5 "/>
<text text-anchor="middle" x="749.5" y="-1118.5" font-family="Noto Sans CJK JP" font-size="10.00">daily_logs</text>
<text text-anchor="middle" x="749.5" y="-1107.5" font-family="Noto Sans CJK JP" font-size="10.00">日報</text>
</g>
<!-- User&#45;&gt;DailyLog -->
<g id="edge8" class="edge">
<title>User&#45;&gt;DailyLog</title>
<path fill="none" stroke="#475569" d="M347,-782.06C347,-857.61 347,-1115.5 347,-1115.5 347,-1115.5 651.82,-1115.5 651.82,-1115.5"/>
<polygon fill="#475569" stroke="#475569" points="651.82,-1117.95 658.82,-1115.5 651.82,-1113.05 651.82,-1117.95"/>
<text text-anchor="middle" x="557.5" y="-1103.3" font-family="Noto Sans CJK JP" font-size="9.00">1:N</text>
</g>
<!-- CaseConferenceLog -->
<g id="node12" class="node">
<title>CaseConferenceLog</title>
<path fill="#ede9fe" stroke="#334155" d="M620,-500.5C620,-500.5 821,-500.5 821,-500.5 827,-500.5 833,-506.5 833,-512.5 833,-512.5 833,-524.5 833,-524.5 833,-530.5 827,-536.5 821,-536.5 821,-536.5 620,-536.5 620,-536.5 614,-536.5 608,-530.5 608,-524.5 608,-524.5 608,-512.5 608,-512.5 608,-506.5 614,-500.5 620,-500.5"/>
<text text-anchor="middle" x="662" y="-516" font-family="Noto Sans CJK JP" font-size="10.00">CaseConferenceLog</text>
<polyline fill="none" stroke="#334155" points="716,-500.5 716,-536.5 "/>
<text text-anchor="middle" x="774.5" y="-521.5" font-family="Noto Sans CJK JP" font-size="10.00">case_conference_logs</text>
<text text-anchor="middle" x="774.5" y="-510.5" font-family="Noto Sans CJK JP" font-size="10.00">ケース会議</text>
</g>
<!-- User&#45;&gt;CaseConferenceLog -->
<g id="edge12" class="edge">
<title>User&#45;&gt;CaseConferenceLog</title>
<path fill="none" stroke="#475569" d="M439.07,-743.33C508.84,-743.33 613,-743.33 613,-743.33 613,-743.33 613,-543.52 613,-543.52"/>
<polygon fill="#475569" stroke="#475569" points="615.45,-543.52 613,-536.52 610.55,-543.52 615.45,-543.52"/>
<text text-anchor="middle" x="557.5" y="-627.3" font-family="Noto Sans CJK JP" font-size="9.00">1:N</text>
</g>
<!-- AttendanceRecord -->
<g id="node14" class="node">
<title>AttendanceRecord</title>
<path fill="#f8fafc" stroke="#334155" d="M628.5,-903.5C628.5,-903.5 812.5,-903.5 812.5,-903.5 818.5,-903.5 824.5,-909.5 824.5,-915.5 824.5,-915.5 824.5,-927.5 824.5,-927.5 824.5,-933.5 818.5,-939.5 812.5,-939.5 812.5,-939.5 628.5,-939.5 628.5,-939.5 622.5,-939.5 616.5,-933.5 616.5,-927.5 616.5,-927.5 616.5,-915.5 616.5,-915.5 616.5,-909.5 622.5,-903.5 628.5,-903.5"/>
<text text-anchor="middle" x="667" y="-919" font-family="Noto Sans CJK JP" font-size="10.00">AttendanceRecord</text>
<polyline fill="none" stroke="#334155" points="717.5,-903.5 717.5,-939.5 "/>
<text text-anchor="middle" x="771" y="-924.5" font-family="Noto Sans CJK JP" font-size="10.00">attendance_records</text>
<text text-anchor="middle" x="771" y="-913.5" font-family="Noto Sans CJK JP" font-size="10.00">出欠実績</text>
</g>
<!-- User&#45;&gt;AttendanceRecord -->
<g id="edge14" class="edge">
<title>User&#45;&gt;AttendanceRecord</title>
<path fill="none" stroke="#475569" d="M439.25,-771.33C512.84,-771.33 626,-771.33 626,-771.33 626,-771.33 626,-896.39 626,-896.39"/>
<polygon fill="#475569" stroke="#475569" points="623.55,-896.39 626,-903.39 628.45,-896.39 623.55,-896.39"/>
<text text-anchor="middle" x="557.5" y="-924.3" font-family="Noto Sans CJK JP" font-size="9.00">1:N</text>
</g>
<!-- BillingData -->
<g id="node16" class="node">
<title>BillingData</title>
<path fill="#f8fafc" stroke="#334155" d="M1012,-989.5C1012,-989.5 1130,-989.5 1130,-989.5 1136,-989.5 1142,-995.5 1142,-1001.5 1142,-1001.5 1142,-1013.5 1142,-1013.5 1142,-1019.5 1136,-1025.5 1130,-1025.5 1130,-1025.5 1012,-1025.5 1012,-1025.5 1006,-1025.5 1000,-1019.5 1000,-1013.5 1000,-1013.5 1000,-1001.5 1000,-1001.5 1000,-995.5 1006,-989.5 1012,-989.5"/>
<text text-anchor="middle" x="1034.5" y="-1005" font-family="Noto Sans CJK JP" font-size="10.00">BillingData</text>
<polyline fill="none" stroke="#334155" points="1069,-989.5 1069,-1025.5 "/>
<text text-anchor="middle" x="1105.5" y="-1010.5" font-family="Noto Sans CJK JP" font-size="10.00">billing_data</text>
<text text-anchor="middle" x="1105.5" y="-999.5" font-family="Noto Sans CJK JP" font-size="10.00">請求根拠</text>
</g>
<!-- User&#45;&gt;BillingData -->
<g id="edge17" class="edge">
<title>User&#45;&gt;BillingData</title>
<path fill="none" stroke="#475569" d="M378,-782.05C378,-841.17 378,-1007.5 378,-1007.5 378,-1007.5 992.77,-1007.5 992.77,-1007.5"/>
<polygon fill="#475569" stroke="#475569" points="992.77,-1009.95 999.77,-1007.5 992.77,-1005.05 992.77,-1009.95"/>
<text text-anchor="middle" x="720.5" y="-1023.3" font-family="Noto Sans CJK JP" font-size="9.00">1:N</text>
</g>
<!-- AuditActionLog -->
<g id="node19" class="node">
<title>AuditActionLog</title>
<path fill="#f1f5f9" stroke="#334155" d="M637.5,-423.5C637.5,-423.5 803.5,-423.5 803.5,-423.5 809.5,-423.5 815.5,-429.5 815.5,-435.5 815.5,-435.5 815.5,-447.5 815.5,-447.5 815.5,-453.5 809.5,-459.5 803.5,-459.5 803.5,-459.5 637.5,-459.5 637.5,-459.5 631.5,-459.5 625.5,-453.5 625.5,-447.5 625.5,-447.5 625.5,-435.5 625.5,-435.5 625.5,-429.5 631.5,-423.5 637.5,-423.5"/>
<text text-anchor="middle" x="670" y="-439" font-family="Noto Sans CJK JP" font-size="10.00">AuditActionLog</text>
<polyline fill="none" stroke="#334155" points="714.5,-423.5 714.5,-459.5 "/>
<text text-anchor="middle" x="765" y="-444.5" font-family="Noto Sans CJK JP" font-size="10.00">audit_action_logs</text>
<text text-anchor="middle" x="765" y="-433.5" font-family="Noto Sans CJK JP" font-size="10.00">事実の監査ログ</text>
</g>
<!-- User&#45;&gt;AuditActionLog -->
<g id="edge28" class="edge">
<title>User&#45;&gt;AuditActionLog</title>
<path fill="none" stroke="#475569" d="M378,-740.91C378,-671.09 378,-447.67 378,-447.67 378,-447.67 618.09,-447.67 618.09,-447.67"/>
<polygon fill="#475569" stroke="#475569" points="618.09,-450.12 625.09,-447.67 618.09,-445.22 618.09,-450.12"/>
<text text-anchor="middle" x="557.5" y="-572.3" font-family="Noto Sans CJK JP" font-size="9.00">1:N 対象</text>
</g>
<!-- LongTermGoal -->
<g id="node6" class="node">
<title>LongTermGoal</title>
<path fill="#f8fafc" stroke="#334155" d="M993.5,-595.5C993.5,-595.5 1148.5,-595.5 1148.5,-595.5 1154.5,-595.5 1160.5,-601.5 1160.5,-607.5 1160.5,-607.5 1160.5,-619.5 1160.5,-619.5 1160.5,-625.5 1154.5,-631.5 1148.5,-631.5 1148.5,-631.5 993.5,-631.5 993.5,-631.5 987.5,-631.5 981.5,-625.5 981.5,-619.5 981.5,-619.5 981.5,-607.5 981.5,-607.5 981.5,-601.5 987.5,-595.5 993.5,-595.5"/>
<text text-anchor="middle" x="1023.5" y="-611" font-family="Noto Sans CJK JP" font-size="10.00">LongTermGoal</text>
<polyline fill="none" stroke="#334155" points="1065.5,-595.5 1065.5,-631.5 "/>
<text text-anchor="middle" x="1113" y="-616.5" font-family="Noto Sans CJK JP" font-size="10.00">long_term_goals</text>
<text text-anchor="middle" x="1113" y="-605.5" font-family="Noto Sans CJK JP" font-size="10.00">長期目標</text>
</g>
<!-- SupportPlan&#45;&gt;LongTermGoal -->
<g id="edge5" class="edge">
<title>SupportPlan&#45;&gt;LongTermGoal</title>
<path fill="none" stroke="#475569" d="M799.6,-609.8C799.6,-609.8 974.39,-609.8 974.39,-609.8"/>
<polygon fill="#475569" stroke="#475569" points="974.39,-612.25 981.39,-609.8 974.39,-607.35 974.39,-612.25"/>
<text text-anchor="middle" x="877.5" y="-616.3" font-family="Noto Sans CJK JP" font-size="9.00">1:N</text>
</g>
<!-- MonitoringReport -->
<g id="node11" class="node">
<title>MonitoringReport</title>
<path fill="#fae8ff" stroke="#334155" d="M980,-492.5C980,-492.5 1162,-492.5 1162,-492.5 1168,-492.5 1174,-498.5 1174,-504.5 1174,-504.5 1174,-516.5 1174,-516.5 1174,-522.5 1168,-528.5 1162,-528.5 1162,-528.5 980,-528.5 980,-528.5 974,-528.5 968,-522.5 968,-516.5 968,-516.5 968,-504.5 968,-504.5 968,-498.5 974,-492.5 980,-492.5"/>
<text text-anchor="middle" x="1017.5" y="-508" font-family="Noto Sans CJK JP" font-size="10.00">MonitoringReport</text>
<polyline fill="none" stroke="#334155" points="1067,-492.5 1067,-528.5 "/>
<text text-anchor="middle" x="1120.5" y="-513.5" font-family="Noto Sans CJK JP" font-size="10.00">monitoring_reports</text>
<text text-anchor="middle" x="1120.5" y="-502.5" font-family="Noto Sans CJK JP" font-size="10.00">モニタリング</text>
</g>
<!-- SupportPlan&#45;&gt;MonitoringReport -->
<g id="edge11" class="edge">
<title>SupportPlan&#45;&gt;MonitoringReport</title>
<path fill="none" stroke="#475569" d="M799.63,-602.4C874.34,-602.4 975,-602.4 975,-602.4 975,-602.4 975,-535.66 975,-535.66"/>
<polygon fill="#475569" stroke="#475569" points="977.45,-535.66 975,-528.66 972.55,-535.66 977.45,-535.66"/>
<text text-anchor="middle" x="877.5" y="-541.3" font-family="Noto Sans CJK JP" font-size="9.00">1:N</text>
</g>
<!-- AbsenceResponseLog -->
<g id="node15" class="node">
<title>AbsenceResponseLog</title>
<path fill="#f8fafc" stroke="#334155" d="M963,-765.5C963,-765.5 1179,-765.5 1179,-765.5 1185,-765.5 1191,-771.5 1191,-777.5 1191,-777.5 1191,-789.5 1191,-789.5 1191,-795.5 1185,-801.5 1179,-801.5 1179,-801.5 963,-801.5 963,-801.5 957,-801.5 951,-795.5 951,-789.5 951,-789.5 951,-777.5 951,-777.5 951,-771.5 957,-765.5 963,-765.5"/>
<text text-anchor="middle" x="1008.5" y="-781" font-family="Noto Sans CJK JP" font-size="10.00">AbsenceResponseLog</text>
<polyline fill="none" stroke="#334155" points="1066,-765.5 1066,-801.5 "/>
<text text-anchor="middle" x="1128.5" y="-786.5" font-family="Noto Sans CJK JP" font-size="10.00">absence_response_logs</text>
<text text-anchor="middle" x="1128.5" y="-775.5" font-family="Noto Sans CJK JP" font-size="10.00">欠席時対応</text>
</g>
<!-- SupportPlan&#45;&gt;AbsenceResponseLog -->
<g id="edge16" class="edge">
<title>SupportPlan&#45;&gt;AbsenceResponseLog</title>
<path fill="none" stroke="#475569" d="M799.59,-617.2C869.35,-617.2 960,-617.2 960,-617.2 960,-617.2 960,-758.39 960,-758.39"/>
<polygon fill="#475569" stroke="#475569" points="957.55,-758.39 960,-765.39 962.45,-758.39 957.55,-758.39"/>
<text text-anchor="middle" x="877.5" y="-729.3" font-family="Noto Sans CJK JP" font-size="9.00">1:N</text>
</g>
<!-- SupportPlan&#45;&gt;BillingData -->
<g id="edge18" class="edge">
<title>SupportPlan&#45;&gt;BillingData</title>
<path fill="none" stroke="#475569" d="M799.71,-624.6C838.93,-624.6 878,-624.6 878,-624.6 878,-624.6 878,-998.25 878,-998.25 878,-998.25 992.96,-998.25 992.96,-998.25"/>
<polygon fill="#475569" stroke="#475569" points="992.96,-1000.7 999.96,-998.25 992.96,-995.8 992.96,-1000.7"/>
<text text-anchor="middle" x="877.5" y="-927.3" font-family="Noto Sans CJK JP" font-size="9.00">1:N</text>
</g>
<!-- ShortTermGoal -->
<g id="node7" class="node">
<title>ShortTermGoal</title>
<path fill="#f8fafc" stroke="#334155" d="M1313,-595.5C1313,-595.5 1474,-595.5 1474,-595.5 1480,-595.5 1486,-601.5 1486,-607.5 1486,-607.5 1486,-619.5 1486,-619.5 1486,-625.5 1480,-631.5 1474,-631.5 1474,-631.5 1313,-631.5 1313,-631.5 1307,-631.5 1301,-625.5 1301,-619.5 1301,-619.5 1301,-607.5 1301,-607.5 1301,-601.5 1307,-595.5 1313,-595.5"/>
<text text-anchor="middle" x="1344.5" y="-611" font-family="Noto Sans CJK JP" font-size="10.00">ShortTermGoal</text>
<polyline fill="none" stroke="#334155" points="1388,-595.5 1388,-631.5 "/>
<text text-anchor="middle" x="1437" y="-616.5" font-family="Noto Sans CJK JP" font-size="10.00">short_term_goals</text>
<text text-anchor="middle" x="1437" y="-605.5" font-family="Noto Sans CJK JP" font-size="10.00">短期目標</text>
</g>
<!-- LongTermGoal&#45;&gt;ShortTermGoal -->
<g id="edge6" class="edge">
<title>LongTermGoal&#45;&gt;ShortTermGoal</title>
<path fill="none" stroke="#475569" d="M1160.83,-613.5C1160.83,-613.5 1293.78,-613.5 1293.78,-613.5"/>
<polygon fill="#475569" stroke="#475569" points="1293.78,-615.95 1300.78,-613.5 1293.78,-611.05 1293.78,-615.95"/>
<text text-anchor="middle" x="1260.5" y="-616.3" font-family="Noto Sans CJK JP" font-size="9.00">1:N</text>
</g>
<!-- IndividualSupportGoal -->
<g id="node8" class="node">
<title>IndividualSupportGoal</title>
<path fill="#f8fafc" stroke="#334155" d="M1579,-595.5C1579,-595.5 1813,-595.5 1813,-595.5 1819,-595.5 1825,-601.5 1825,-607.5 1825,-607.5 1825,-619.5 1825,-619.5 1825,-625.5 1819,-631.5 1813,-631.5 1813,-631.5 1579,-631.5 1579,-631.5 1573,-631.5 1567,-625.5 1567,-619.5 1567,-619.5 1567,-607.5 1567,-607.5 1567,-601.5 1573,-595.5 1579,-595.5"/>
<text text-anchor="middle" x="1628.5" y="-611" font-family="Noto Sans CJK JP" font-size="10.00">IndividualSupportGoal</text>
<polyline fill="none" stroke="#334155" points="1690,-595.5 1690,-631.5 "/>
<text text-anchor="middle" x="1757.5" y="-616.5" font-family="Noto Sans CJK JP" font-size="10.00">individual_support_goals</text>
<text text-anchor="middle" x="1757.5" y="-605.5" font-family="Noto Sans CJK JP" font-size="10.00">個別支援目標</text>
</g>
<!-- ShortTermGoal&#45;&gt;IndividualSupportGoal -->
<g id="edge7" class="edge">
<title>ShortTermGoal&#45;&gt;IndividualSupportGoal</title>
<path fill="none" stroke="#475569" d="M1486.32,-613.5C1486.32,-613.5 1559.89,-613.5 1559.89,-613.5"/>
<polygon fill="#475569" stroke="#475569" points="1559.89,-615.95 1566.89,-613.5 1559.89,-611.05 1559.89,-615.95"/>
<text text-anchor="middle" x="1526.5" y="-616.3" font-family="Noto Sans CJK JP" font-size="9.00">1:N</text>
</g>
<!-- DailyLogActivity -->
<g id="node10" class="node">
<title>DailyLogActivity</title>
<path fill="#f8fafc" stroke="#334155" d="M1918,-595.5C1918,-595.5 2095,-595.5 2095,-595.5 2101,-595.5 2107,-601.5 2107,-607.5 2107,-607.5 2107,-619.5 2107,-619.5 2107,-625.5 2101,-631.5 2095,-631.5 2095,-631.5 1918,-631.5 1918,-631.5 1912,-631.5 1906,-625.5 1906,-619.5 1906,-619.5 1906,-607.5 1906,-607.5 1906,-601.5 1912,-595.5 1918,-595.5"/>
<text text-anchor="middle" x="1952.5" y="-611" font-family="Noto Sans CJK JP" font-size="10.00">DailyLogActivity</text>
<polyline fill="none" stroke="#334155" points="1999,-595.5 1999,-631.5 "/>
<text text-anchor="middle" x="2053" y="-616.5" font-family="Noto Sans CJK JP" font-size="10.00">daily_log_activities</text>
<text text-anchor="middle" x="2053" y="-605.5" font-family="Noto Sans CJK JP" font-size="10.00">活動実績</text>
</g>
<!-- IndividualSupportGoal&#45;&gt;DailyLogActivity -->
<g id="edge10" class="edge">
<title>IndividualSupportGoal&#45;&gt;DailyLogActivity</title>
<path fill="none" stroke="#475569" d="M1825.43,-613.5C1825.43,-613.5 1898.66,-613.5 1898.66,-613.5"/>
<polygon fill="#475569" stroke="#475569" points="1898.66,-615.95 1905.66,-613.5 1898.66,-611.05 1898.66,-615.95"/>
<text text-anchor="middle" x="1865.5" y="-616.3" font-family="Noto Sans CJK JP" font-size="9.00">1:N</text>
</g>
<!-- DailyLog&#45;&gt;DailyLogActivity -->
<g id="edge9" class="edge">
<title>DailyLog&#45;&gt;DailyLogActivity</title>
<path fill="none" stroke="#475569" d="M782.12,-1121.67C1038.44,-1121.67 2007,-1121.67 2007,-1121.67 2007,-1121.67 2007,-638.59 2007,-638.59"/>
<polygon fill="#475569" stroke="#475569" points="2009.45,-638.59 2007,-631.59 2004.55,-638.59 2009.45,-638.59"/>
<text text-anchor="middle" x="1393.5" y="-1167.3" font-family="Noto Sans CJK JP" font-size="9.00">1:N</text>
</g>
<!-- DailyLog&#45;&gt;AbsenceResponseLog -->
<g id="edge15" class="edge">
<title>DailyLog&#45;&gt;AbsenceResponseLog</title>
<path fill="none" stroke="#475569" d="M782.02,-1109.33C857.63,-1109.33 976,-1109.33 976,-1109.33 976,-1109.33 976,-808.95 976,-808.95"/>
<polygon fill="#475569" stroke="#475569" points="978.45,-808.95 976,-801.95 973.55,-808.95 978.45,-808.95"/>
<text text-anchor="middle" x="877.5" y="-1076.3" font-family="Noto Sans CJK JP" font-size="9.00">1:0..1</text>
</g>
<!-- DailyLog&#45;&gt;BillingData -->
<g id="edge19" class="edge">
<title>DailyLog&#45;&gt;BillingData</title>
<path fill="none" stroke="#475569" d="M721,-1097.39C721,-1068.88 721,-1016.75 721,-1016.75 721,-1016.75 992.75,-1016.75 992.75,-1016.75"/>
<polygon fill="#475569" stroke="#475569" points="992.75,-1019.2 999.75,-1016.75 992.75,-1014.3 992.75,-1019.2"/>
<text text-anchor="middle" x="877.5" y="-1131.3" font-family="Noto Sans CJK JP" font-size="9.00">1:0..1</text>
</g>
<!-- CaseConferenceParticipant -->
<g id="node13" class="node">
<title>CaseConferenceParticipant</title>
<path fill="#f8fafc" stroke="#334155" d="M934,-363.5C934,-363.5 1208,-363.5 1208,-363.5 1214,-363.5 1220,-369.5 1220,-375.5 1220,-375.5 1220,-387.5 1220,-387.5 1220,-393.5 1214,-399.5 1208,-399.5 1208,-399.5 934,-399.5 934,-399.5 928,-399.5 922,-393.5 922,-387.5 922,-387.5 922,-375.5 922,-375.5 922,-369.5 928,-363.5 934,-363.5"/>
<text text-anchor="middle" x="993.5" y="-379" font-family="Noto Sans CJK JP" font-size="10.00">CaseConferenceParticipant</text>
<polyline fill="none" stroke="#334155" points="1065,-363.5 1065,-399.5 "/>
<text text-anchor="middle" x="1142.5" y="-384.5" font-family="Noto Sans CJK JP" font-size="10.00">case_conference_participants</text>
<text text-anchor="middle" x="1142.5" y="-373.5" font-family="Noto Sans CJK JP" font-size="10.00">参加者</text>
</g>
<!-- CaseConferenceLog&#45;&gt;CaseConferenceParticipant -->
<g id="edge13" class="edge">
<title>CaseConferenceLog&#45;&gt;CaseConferenceParticipant</title>
<path fill="none" stroke="#475569" d="M825,-500.31C825,-464.36 825,-387.67 825,-387.67 825,-387.67 914.87,-387.67 914.87,-387.67"/>
<polygon fill="#475569" stroke="#475569" points="914.87,-390.12 921.87,-387.67 914.87,-385.22 914.87,-390.12"/>
<text text-anchor="middle" x="877.5" y="-445.3" font-family="Noto Sans CJK JP" font-size="9.00">1:N</text>
</g>
<!-- Supporter -->
<g id="node17" class="node">
<title>Supporter</title>
<path fill="#dbeafe" stroke="#334155" d="M12,-281.5C12,-281.5 126,-281.5 126,-281.5 132,-281.5 138,-287.5 138,-293.5 138,-293.5 138,-305.5 138,-305.5 138,-311.5 132,-317.5 126,-317.5 126,-317.5 12,-317.5 12,-317.5 6,-317.5 0,-311.5 0,-305.5 0,-305.5 0,-293.5 0,-293.5 0,-287.5 6,-281.5 12,-281.5"/>
<text text-anchor="middle" x="31.5" y="-297" font-family="Noto Sans CJK JP" font-size="10.00">Supporter</text>
<polyline fill="none" stroke="#334155" points="63,-281.5 63,-317.5 "/>
<text text-anchor="middle" x="100.5" y="-302.5" font-family="Noto Sans CJK JP" font-size="10.00">supporters</text>
<text text-anchor="middle" x="100.5" y="-291.5" font-family="Noto Sans CJK JP" font-size="10.00">職員・支援者</text>
</g>
<!-- Supporter&#45;&gt;User -->
<g id="edge21" class="edge">
<title>Supporter&#45;&gt;User</title>
<path fill="none" stroke="#475569" d="M138.08,-311.83C220.41,-311.83 347,-311.83 347,-311.83 347,-311.83 347,-733.71 347,-733.71"/>
<polygon fill="#475569" stroke="#475569" points="344.55,-733.71 347,-740.71 349.45,-733.71 344.55,-733.71"/>
<text text-anchor="middle" x="193" y="-661.3" font-family="Noto Sans CJK JP" font-size="9.00">1:N 主担当</text>
</g>
<!-- Supporter&#45;&gt;DailyLogActivity -->
<g id="edge22" class="edge">
<title>Supporter&#45;&gt;DailyLogActivity</title>
<path fill="none" stroke="#475569" d="M138.26,-299.5C484.05,-299.5 2007,-299.5 2007,-299.5 2007,-299.5 2007,-588.26 2007,-588.26"/>
<polygon fill="#475569" stroke="#475569" points="2004.55,-588.26 2007,-595.26 2009.45,-588.26 2004.55,-588.26"/>
<text text-anchor="middle" x="1071" y="-101.3" font-family="Noto Sans CJK JP" font-size="9.00">1:N</text>
</g>
<!-- Supporter&#45;&gt;MonitoringReport -->
<g id="edge23" class="edge">
<title>Supporter&#45;&gt;MonitoringReport</title>
<path fill="none" stroke="#475569" d="M35,-317.63C35,-366.28 35,-496 35,-496 35,-496 960.88,-496 960.88,-496"/>
<polygon fill="#475569" stroke="#475569" points="960.88,-498.45 967.88,-496 960.88,-493.55 960.88,-498.45"/>
<text text-anchor="middle" x="557.5" y="-261.3" font-family="Noto Sans CJK JP" font-size="9.00">1:N</text>
</g>
<!-- Supporter&#45;&gt;CaseConferenceLog -->
<g id="edge24" class="edge">
<title>Supporter&#45;&gt;CaseConferenceLog</title>
<path fill="none" stroke="#475569" d="M138.13,-305.67C285.45,-305.67 617,-305.67 617,-305.67 617,-305.67 617,-493.35 617,-493.35"/>
<polygon fill="#475569" stroke="#475569" points="614.55,-493.35 617,-500.35 619.45,-493.35 614.55,-493.35"/>
<text text-anchor="middle" x="377.5" y="-534.3" font-family="Noto Sans CJK JP" font-size="9.00">1:N 主催</text>
</g>
<!-- Supporter&#45;&gt;CaseConferenceParticipant -->
<g id="edge25" class="edge">
<title>Supporter&#45;&gt;CaseConferenceParticipant</title>
<path fill="none" stroke="#475569" d="M104,-317.86C104,-340.3 104,-375.33 104,-375.33 104,-375.33 914.76,-375.33 914.76,-375.33"/>
<polygon fill="#475569" stroke="#475569" points="914.76,-377.78 921.76,-375.33 914.76,-372.88 914.76,-377.78"/>
<text text-anchor="middle" x="557.5" y="-343.3" font-family="Noto Sans CJK JP" font-size="9.00">1:N 参加</text>
</g>
<!-- SupporterPII -->
<g id="node18" class="node">
<title>SupporterPII</title>
<path fill="#fee2e2" stroke="#334155" d="M312.5,-160.5C312.5,-160.5 442.5,-160.5 442.5,-160.5 448.5,-160.5 454.5,-166.5 454.5,-172.5 454.5,-172.5 454.5,-184.5 454.5,-184.5 454.5,-190.5 448.5,-196.5 442.5,-196.5 442.5,-196.5 312.5,-196.5 312.5,-196.5 306.5,-196.5 300.5,-190.5 300.5,-184.5 300.5,-184.5 300.5,-172.5 300.5,-172.5 300.5,-166.5 306.5,-160.5 312.5,-160.5"/>
<text text-anchor="middle" x="338" y="-176" font-family="Noto Sans CJK JP" font-size="10.00">SupporterPII</text>
<polyline fill="none" stroke="#334155" points="375.5,-160.5 375.5,-196.5 "/>
<text text-anchor="middle" x="415" y="-181.5" font-family="Noto Sans CJK JP" font-size="10.00">supporter_pii</text>
<text text-anchor="middle" x="415" y="-170.5" font-family="Noto Sans CJK JP" font-size="10.00">職員PII</text>
</g>
<!-- Supporter&#45;&gt;SupporterPII -->
<g id="edge20" class="edge">
<title>Supporter&#45;&gt;SupporterPII</title>
<path fill="none" stroke="#475569" d="M138.1,-293.33C209,-293.33 309,-293.33 309,-293.33 309,-293.33 309,-203.7 309,-203.7"/>
<polygon fill="#475569" stroke="#475569" points="311.45,-203.7 309,-196.7 306.55,-203.7 311.45,-203.7"/>
<text text-anchor="middle" x="193" y="-181.3" font-family="Noto Sans CJK JP" font-size="9.00">1:1</text>
</g>
<!-- Supporter&#45;&gt;AuditActionLog -->
<g id="edge26" class="edge">
<title>Supporter&#45;&gt;AuditActionLog</title>
<path fill="none" stroke="#475569" d="M69,-317.54C69,-354.49 69,-435.33 69,-435.33 69,-435.33 618.42,-435.33 618.42,-435.33"/>
<polygon fill="#475569" stroke="#475569" points="618.42,-437.78 625.42,-435.33 618.42,-432.88 618.42,-437.78"/>
<text text-anchor="middle" x="377.5" y="-444.3" font-family="Noto Sans CJK JP" font-size="9.00">1:N 操作</text>
</g>
<!-- UnresolvedRiskCounter -->
<g id="node20" class="node">
<title>UnresolvedRiskCounter</title>
<path fill="#ffedd5" stroke="#334155" d="M260,-0.5C260,-0.5 495,-0.5 495,-0.5 501,-0.5 507,-6.5 507,-12.5 507,-12.5 507,-24.5 507,-24.5 507,-30.5 501,-36.5 495,-36.5 495,-36.5 260,-36.5 260,-36.5 254,-36.5 248,-30.5 248,-24.5 248,-24.5 248,-12.5 248,-12.5 248,-6.5 254,-0.5 260,-0.5"/>
<text text-anchor="middle" x="310.5" y="-16" font-family="Noto Sans CJK JP" font-size="10.00">UnresolvedRiskCounter</text>
<polyline fill="none" stroke="#334155" points="373,-0.5 373,-36.5 "/>
<text text-anchor="middle" x="440" y="-21.5" font-family="Noto Sans CJK JP" font-size="10.00">unresolved_risk_counters</text>
<text text-anchor="middle" x="440" y="-10.5" font-family="Noto Sans CJK JP" font-size="10.00">未対応リスク</text>
</g>
<!-- Supporter&#45;&gt;UnresolvedRiskCounter -->
<g id="edge27" class="edge">
<title>Supporter&#45;&gt;UnresolvedRiskCounter</title>
<path fill="none" stroke="#475569" d="M138.17,-287.17C198.01,-287.17 275,-287.17 275,-287.17 275,-287.17 275,-43.55 275,-43.55"/>
<polygon fill="#475569" stroke="#475569" points="277.45,-43.55 275,-36.55 272.55,-43.55 277.45,-43.55"/>
<text text-anchor="middle" x="193" y="-21.3" font-family="Noto Sans CJK JP" font-size="9.00">1:N 対応</text>
</g>
</g>
</svg>
